<?xml version="1.0" standalone="no"?>
<!DOCTYPE svg PUBLIC "-//W3C//DTD SVG 20010904//EN"
 "http://www.w3.org/TR/2001/REC-SVG-20010904/DTD/svg10.dtd">
<svg version="1.0" xmlns="http://www.w3.org/2000/svg"
 width="200.000000pt" height="50.000000pt" viewBox="0 0 200.000000 50.000000"
 preserveAspectRatio="xMidYMid meet">

<g transform="translate(0.000000,50.000000) scale(0.100000,-0.100000)"
fill="#000000" stroke="none">
<path d="M747 423 c-24 -23 12 -55 38 -33 12 10 13 16 4 26 -12 15 -31 18 -42
7z"/>
<path d="M1270 296 c0 -138 -1 -136 78 -136 79 0 124 109 67 165 -26 27 -64
32 -83 13 -9 -9 -12 -2 -12 35 0 43 -2 47 -25 47 l-25 0 0 -124z m108 2 c7 -7
12 -26 12 -43 0 -37 -16 -55 -47 -55 -20 0 -23 5 -23 43 0 42 13 67 35 67 6 0
16 -5 23 -12z"/>
<path d="M1898 393 c-10 -2 -18 -13 -18 -24 0 -10 -7 -19 -15 -19 -8 0 -15 -9
-15 -20 0 -11 7 -20 15 -20 12 0 15 -14 15 -63 0 -36 5 -68 12 -75 14 -14 57
-16 77 -3 16 10 3 36 -19 36 -11 0 -16 14 -18 53 -3 50 -2 52 22 52 19 0 26 5
26 20 0 15 -7 20 -25 20 -20 0 -25 5 -25 25 0 25 -1 26 -32 18z"/>
<path d="M47 332 c-28 -31 -18 -64 25 -87 49 -26 51 -50 4 -42 -26 4 -36 1
-40 -10 -9 -21 -4 -25 46 -30 80 -9 105 60 38 105 -49 32 -51 46 -7 39 27 -4
37 -2 41 10 9 21 4 25 -46 30 -34 4 -47 1 -61 -15z"/>
<path d="M200 272 c0 -64 4 -82 18 -95 23 -21 66 -22 83 -1 11 14 13 14 21 0
5 -9 16 -16 23 -16 12 0 15 19 15 95 0 95 0 95 -25 95 -24 0 -25 -2 -25 -64 0
-67 -15 -94 -45 -82 -11 4 -15 22 -15 76 0 68 -1 70 -25 70 -25 0 -25 -1 -25
-78z"/>
<path d="M400 255 c0 -95 0 -95 25 -95 24 0 25 2 25 64 0 67 15 94 45 82 11
-4 15 -22 15 -76 0 -68 1 -70 25 -70 25 0 25 1 25 78 0 64 -4 82 -18 95 -23
21 -51 22 -80 1 -20 -14 -22 -14 -22 0 0 9 -9 16 -20 16 -19 0 -20 -7 -20 -95z"/>
<path d="M600 255 c0 -94 0 -95 25 -95 23 0 24 3 27 73 3 70 4 72 31 75 19 2
27 9 27 23 0 24 -32 26 -54 3 -15 -14 -16 -14 -16 0 0 9 -8 16 -20 16 -19 0
-20 -7 -20 -95z"/>
<path d="M740 255 c0 -95 0 -95 25 -95 25 0 25 0 25 95 0 95 0 95 -25 95 -25
0 -25 0 -25 -95z"/>
<path d="M837 332 c-28 -31 -18 -64 25 -87 49 -26 51 -50 4 -42 -26 4 -36 1
-40 -10 -9 -21 -4 -25 46 -30 80 -9 105 60 38 105 -49 32 -51 46 -7 39 27 -4
37 -2 41 10 9 21 4 25 -46 30 -34 4 -47 1 -61 -15z"/>
<path d="M1010 332 c-16 -13 -24 -32 -27 -69 -5 -45 -2 -55 20 -77 28 -28 73
-34 107 -16 30 16 14 40 -21 33 -28 -5 -59 9 -59 28 0 5 25 9 55 9 l55 0 0 35
c0 45 -29 75 -74 75 -19 0 -44 -8 -56 -18z m88 -44 c3 -15 -4 -18 -32 -18 -38
0 -44 8 -24 28 17 17 52 11 56 -10z"/>
<path d="M1490 332 c-27 -22 -37 -95 -18 -132 29 -54 126 -53 154 2 21 41 13
107 -16 130 -29 23 -91 23 -120 0z m89 -36 c17 -20 10 -77 -11 -90 -26 -16
-52 4 -56 43 -4 36 12 61 38 61 10 0 23 -6 29 -14z"/>
<path d="M1690 332 c-27 -22 -37 -95 -18 -132 29 -54 126 -53 154 2 21 41 13
107 -16 130 -29 23 -91 23 -120 0z m89 -36 c17 -20 10 -77 -11 -90 -26 -16
-52 4 -56 43 -4 36 12 61 38 61 10 0 23 -6 29 -14z"/>
</g>
</svg>
