<?xml version="1.0" ?><svg enable-background="new 0 0 52 52" id="Layer_1" version="1.1" viewBox="0 0 52 52" xml:space="preserve" xmlns="http://www.w3.org/2000/svg" xmlns:xlink="http://www.w3.org/1999/xlink"><g><g><path d="M32.9994774,12c2.7599487,0,5-2.25,5-5c0-2.7600098-2.2400513-5-5-5c-2.7600098,0-5,2.2399902-5,5    C27.9994774,9.75,30.2394676,12,32.9994774,12z" fill="#F93E2B"/></g><g><path d="M19.9994774,12c2.7599487,0,5-2.25,5-5c0-2.7600098-2.2400513-5-5-5c-2.7600098,0-5,2.2399902-5,5    C14.9994774,9.75,17.2394676,12,19.9994774,12z" fill="#F93E2B"/></g><g><path d="M19.9994774,25c2.7599487,0,5-2.25,5-5c0-2.7600098-2.2400513-5-5-5c-2.7600098,0-5,2.2399902-5,5    C14.9994774,22.75,17.2394676,25,19.9994774,25z" fill="#F93E2B"/></g><g><path d="M6.9994774,28c-2.7600098,0-5,2.2399902-5,5c0,2.75,2.2399902,5,5,5c2.7599487,0,5-2.25,5-5    C11.9994774,30.2399902,9.7594261,28,6.9994774,28z" fill="#F93E2B"/></g><g><path d="M6.9994774,15c-2.7600098,0-5,2.2399902-5,5c0,2.75,2.2399902,5,5,5c2.7599487,0,5-2.25,5-5    C11.9994774,17.2399902,9.7594261,15,6.9994774,15z" fill="#F93E2B"/></g><g><path d="M6.9994774,2c-2.7600098,0-5,2.2399902-5,5c0,2.75,2.2399902,5,5,5c2.7599487,0,5-2.25,5-5    C11.9994774,4.2399902,9.7594261,2,6.9994774,2z" fill="#F93E2B"/></g><g><path d="M47.1294823,33.6799316c-0.7900391-0.4299316-1.8000488-0.4499512-2.6900024-0.0599365    c-0.2300415-1.7799072-1.3800049-3.3499756-3.1300049-4.0799561c-1.2700195-0.5200195-2.7399902-0.5-3.9899902,0.0400391    l-0.25-10.5200195c-0.0500488-2.1800537-1.8700562-3.9500732-4.0400391-3.9500732    c-2.2199707,0-4.0299683,1.8100586-4.0299683,4.0400391v13.5l-0.7000122-0.9700928    c-0.75-1.0299072-1.960022-1.6398926-3.2299805-1.6398926c-0.3267212,0-0.6533813,0.0406494-0.9686279,0.1176758    C23.1763573,28.8255615,21.655117,28,19.9994774,28c-2.7600098,0-5,2.2399902-5,5s2.2399902,5,5,5    c0.8818359,0,1.7234497-0.2403564,2.4708252-0.670166l4.4691772,6.3701172V50h22v-6.5l0.789978-3.2199707    C50.5494652,37.75,49.4594383,34.9799805,47.1294823,33.6799316z"/></g></g></svg>